<svg width="50" height="50" viewBox="0 0 50 50" fill="none" xmlns="http://www.w3.org/2000/svg">
<g clip-path="url(#clip0_10_559)">
<path d="M0 25C0 38.8086 11.1914 50 25 50C38.8086 50 50 38.8086 50 25C50 11.1914 38.8086 0 25 0C11.1914 0 0 11.1914 0 25ZM23.5352 36.8164C22.6172 37.7344 21.1328 37.7344 20.2246 36.8164C19.3164 35.8984 19.3066 34.4141 20.2246 33.5059L28.7207 25.0098L20.2246 16.5137C19.3066 15.5957 19.3066 14.1113 20.2246 13.2031C21.1426 12.2949 22.627 12.2852 23.5352 13.2031L33.6914 23.3398C34.6094 24.2578 34.6094 25.7422 33.6914 26.6504L23.5352 36.8164Z" fill="white"/>
</g>
<defs>
<clipPath id="clip0_10_559">
<rect width="50" height="50" fill="white" transform="matrix(0 -1 1 0 0 50)"/>
</clipPath>
</defs>
</svg>
