<svg width="50" height="50" viewBox="0 0 50 50" fill="none" xmlns="http://www.w3.org/2000/svg">
<g clip-path="url(#clip0_10_560)">
<path d="M50 25C50 11.1914 38.8086 0 25 0C11.1914 0 0 11.1914 0 25C0 38.8086 11.1914 50 25 50C38.8086 50 50 38.8086 50 25ZM26.4648 13.1836C27.3828 12.2656 28.8672 12.2656 29.7754 13.1836C30.6836 14.1016 30.6934 15.5859 29.7754 16.4941L21.2793 24.9902L29.7754 33.4863C30.6934 34.4043 30.6934 35.8887 29.7754 36.7969C28.8574 37.7051 27.373 37.7148 26.4648 36.7969L16.3086 26.6602C15.3906 25.7422 15.3906 24.2578 16.3086 23.3496L26.4648 13.1836Z" fill="white"/>
</g>
<defs>
<clipPath id="clip0_10_560">
<rect width="50" height="50" fill="white" transform="matrix(0 1 -1 0 50 0)"/>
</clipPath>
</defs>
</svg>
