<svg width="50" height="50" viewBox="0 0 50 50" fill="none" xmlns="http://www.w3.org/2000/svg">
    <g clip-path="url(#clip0_6_32)">
        <path d="M40.625 20.3125C40.625 24.7949 39.1699 28.9355 36.7188 32.2949L49.082 44.668C50.3027 45.8887 50.3027 47.8711 49.082 49.0918C47.8613 50.3125 45.8789 50.3125 44.6582 49.0918L32.2949 36.7188C28.9355 39.1797 24.7949 40.625 20.3125 40.625C9.0918 40.625 0 31.5332 0 20.3125C0 9.0918 9.0918 0 20.3125 0C31.5332 0 40.625 9.0918 40.625 20.3125ZM20.3125 34.375C28.0762 34.375 34.375 28.0762 34.375 20.3125C34.375 12.5488 28.0762 6.25 20.3125 6.25C12.5488 6.25 6.25 12.5488 6.25 20.3125C6.25 28.0762 12.5488 34.375 20.3125 34.375Z" fill="white"/>
    </g>
    <defs>
        <clipPath id="clip0_6_32">
            <rect width="50" height="50" fill="white"/>
        </clipPath>
    </defs>
</svg>
