<svg width="50" height="45" viewBox="0 0 50 45" fill="none" xmlns="http://www.w3.org/2000/svg">
<g clip-path="url(#clip0_21_130)">
<path d="M47.2222 0C48.7587 0 50 1.24132 50 2.77778V41.6667C50 43.2031 48.7587 44.4444 47.2222 44.4444C45.6858 44.4444 44.4444 43.2031 44.4444 41.6667V2.77778C44.4444 1.24132 45.6858 0 47.2222 0ZM36.1111 8.33333C37.6476 8.33333 38.8889 9.57465 38.8889 11.1111V41.6667C38.8889 43.2031 37.6476 44.4444 36.1111 44.4444C34.5746 44.4444 33.3333 43.2031 33.3333 41.6667V11.1111C33.3333 9.57465 34.5746 8.33333 36.1111 8.33333ZM27.7778 19.4444V41.6667C27.7778 43.2031 26.5365 44.4444 25 44.4444C23.4635 44.4444 22.2222 43.2031 22.2222 41.6667V19.4444C22.2222 17.908 23.4635 16.6667 25 16.6667C26.5365 16.6667 27.7778 17.908 27.7778 19.4444ZM13.8889 25C15.4253 25 16.6667 26.2413 16.6667 27.7778V41.6667C16.6667 43.2031 15.4253 44.4444 13.8889 44.4444C12.3524 44.4444 11.1111 43.2031 11.1111 41.6667V27.7778C11.1111 26.2413 12.3524 25 13.8889 25ZM5.55556 36.1111V41.6667C5.55556 43.2031 4.31424 44.4444 2.77778 44.4444C1.24132 44.4444 0 43.2031 0 41.6667V36.1111C0 34.5746 1.24132 33.3333 2.77778 33.3333C4.31424 33.3333 5.55556 34.5746 5.55556 36.1111Z" fill="darkgreen"/>
</g>
<defs>
<clipPath id="clip0_21_130">
<rect width="50" height="44.4444" fill="white"/>
</clipPath>
</defs>
</svg>
